<!DOCTYPE svg PUBLIC "-//W3C//DTD SVG 20010904//EN" "http://www.w3.org/TR/2001/REC-SVG-20010904/DTD/svg10.dtd">
<svg version="1.0" xmlns="http://www.w3.org/2000/svg" width="1200px" height="256px" viewBox="0 0 12000 2560" preserveAspectRatio="xMidYMid meet">
<g id="layer101" fill="#070706" stroke="none">
<path d="M40 2540 c0 -5 16 -70 35 -142 58 -224 69 -304 69 -503 1 -237 -29 -375 -116 -549 -17 -34 -26 -62 -21 -67 15 -15 3064 -408 3288 -424 295 -22 391 -37 551 -86 76 -23 183 -76 229 -114 29 -24 29 -25 17 -70 -12 -46 -12 -47 23 -87 44 -53 75 -134 75 -201 0 -62 -16 -90 -71 -117 -43 -22 -44 -25 -28 -67 25 -67 71 -88 128 -58 39 20 115 108 148 172 16 29 31 53 35 53 4 0 13 -9 20 -20 13 -20 24 -20 1230 -20 l1218 0 0 -39 c0 -47 26 -71 76 -71 24 0 39 -8 58 -31 14 -17 26 -35 26 -40 0 -5 29 -9 64 -9 62 0 65 1 85 34 23 37 39 46 80 46 40 0 60 20 63 65 l3 40 2107 3 2107 2 3 -112 3 -113 47 -3 c39 -3 49 0 58 18 22 41 69 60 148 60 93 0 112 16 112 94 l0 55 43 3 42 3 3 239 c2 185 -1 241 -10 248 -7 4 -268 8 -579 8 -558 0 -567 0 -572 20 -5 18 -14 20 -106 20 -94 0 -101 -1 -101 -20 0 -20 -7 -20 -1330 -20 l-1330 0 0 21 c0 45 -17 59 -76 59 -31 0 -392 34 -804 75 l-749 75 -404 0 -405 0 -91 87 c-50 48 -91 94 -91 102 0 34 -49 118 -90 155 -94 84 -241 128 -430 128 -164 0 -291 -34 -357 -95 l-23 -20 0 55 c0 94 -47 190 -108 222 -15 8 -186 73 -380 145 -384 142 -410 148 -489 110 -58 -28 -136 -115 -159 -180 -19 -51 -20 -53 -72 -65 -30 -6 -64 -17 -77 -24 -20 -11 -28 -10 -49 4 -25 16 -3035 956 -3062 956 -8 0 -14 -4 -14 -10z m3873 -945 c346 -128 363 -138 361 -208 -1 -48 -26 -104 -58 -129 -40 -33 -86 -22 -393 92 -322 120 -353 137 -353 200 0 77 59 157 118 159 7 1 154 -51 325 -114z m1065 -310 c82 -20 152 -56 190 -99 28 -32 48 -73 40 -81 -7 -8 -488 -9 -488 -2 0 26 37 79 67 98 43 27 39 48 -12 66 -35 12 -45 12 -82 -2 -48 -19 -110 -82 -119 -122 -9 -45 -13 -53 -22 -53 -13 0 -2 100 14 132 16 31 54 54 111 67 61 14 232 12 301 -4z m-1194 -92 c58 -21 106 -41 106 -45 0 -15 -213 61 -235 84 -7 8 -5 9 6 5 9 -3 64 -23 123 -44z"/>
</g>
<g id="layer102" fill="#663300" stroke="none">
<path d="M104 2475 c30 -79 73 -305 87 -454 20 -221 -12 -447 -91 -634 -16 -39 -28 -72 -27 -73 2 -2 664 -89 1472 -193 809 -105 1480 -192 1493 -195 l22 -3 -2 325 -3 325 -1475 459 c-811 252 -1476 458 -1478 458 -2 0 -1 -7 2 -15z"/>
<path d="M5880 735 l0 -195 935 0 935 0 0 120 c0 116 -1 120 -22 124 -13 3 -347 37 -743 76 -613 60 -748 70 -912 70 l-193 0 0 -195z"/>
</g>
<g id="layer103" fill="#986532" stroke="none">
<path d="M244 1525 c-6 -35 -2 -141 7 -149 4 -3 2753 -416 2773 -416 10 0 1 79 -11 90 -8 7 -2715 510 -2745 510 -12 0 -19 -11 -24 -35z"/>
</g>
<g id="layer104" fill="#747474" stroke="none">
<path d="M3511 1829 c-48 -15 -124 -95 -145 -154 -10 -28 -21 -57 -25 -65 -8 -15 -50 -33 -104 -45 -36 -7 -30 -15 51 -69 37 -25 87 -63 112 -85 39 -35 89 -56 353 -155 l309 -115 51 12 c29 6 101 36 162 67 107 54 110 56 123 100 24 81 -6 199 -61 234 -33 22 -723 277 -760 281 -18 2 -47 0 -66 -6z m424 -190 c165 -62 312 -120 326 -130 75 -52 78 -191 6 -267 -26 -28 -79 -52 -116 -52 -14 0 -168 52 -341 117 -342 127 -359 137 -381 216 -19 70 21 169 83 207 61 37 99 29 423 -91z"/>
<path d="M3112 1228 l3 -313 110 -7 c424 -28 623 -68 797 -160 76 -40 190 -152 308 -301 47 -59 87 -107 90 -107 3 0 5 202 5 450 0 247 -2 449 -5 447 -257 -132 -301 -148 -425 -148 -139 0 -300 55 -452 153 -37 25 -138 95 -223 157 -85 62 -167 119 -182 127 l-28 15 2 -313z"/>
<path d="M4693 1390 c-78 -14 -156 -47 -186 -78 -25 -26 -26 -33 -33 -179 l-7 -153 494 0 494 1 -78 72 c-61 57 -77 78 -77 100 0 91 -103 180 -256 221 -71 20 -279 29 -351 16z m292 -66 c140 -29 235 -95 270 -189 32 -83 50 -79 -370 -85 -277 -4 -372 -2 -380 7 -18 17 -7 130 16 180 11 23 30 48 42 56 79 51 262 65 422 31z"/>
<path d="M4683 1204 c-24 -14 -43 -27 -43 -28 0 -2 -7 -20 -15 -40 l-16 -37 32 3 c26 2 33 9 44 41 7 22 23 50 36 63 29 31 15 30 -38 -2z"/>
<path d="M4480 610 l0 -320 675 0 675 0 0 155 0 155 -383 0 c-353 0 -385 1 -417 19 -78 41 -103 132 -56 202 47 69 49 69 476 69 358 0 381 1 378 18 -3 16 -44 17 -676 20 l-672 2 0 -320z"/>
<path d="M7810 640 l0 -130 55 0 55 0 0 130 0 130 -55 0 -55 0 0 -130z"/>
<path d="M10680 640 l0 -100 55 0 55 0 0 100 0 100 -55 0 -55 0 0 -100z"/>
<path d="M7970 615 l0 -75 1330 0 1330 0 0 75 0 75 -1330 0 -1330 0 0 -75z"/>
<path d="M10840 615 l0 -75 555 0 555 0 0 75 0 75 -555 0 -555 0 0 -75z"/>
<path d="M5880 390 l0 -100 3035 0 3035 0 0 100 0 100 -1989 0 c-1759 0 -1990 -2 -1995 -15 -8 -22 -201 -22 -210 0 -5 13 -119 15 -941 15 l-935 0 0 -100z"/>
<path d="M6920 210 c0 -26 4 -30 28 -30 33 0 87 -31 102 -59 18 -35 67 -28 112 15 24 24 50 39 75 43 32 5 38 10 38 31 l0 25 -177 3 -178 2 0 -30z"/>
<path d="M11590 134 l0 -86 42 36 c49 42 91 56 171 56 l57 0 0 40 0 40 -135 0 -135 0 0 -86z"/>
</g>
<g id="layer105" fill="#afafaf" stroke="none">
<path d="M3130 1050 c0 -11 -4 -20 -10 -20 -5 0 -10 -7 -10 -15 0 -8 5 -15 10 -15 6 0 10 -12 10 -26 0 -17 4 -24 13 -21 7 2 55 0 107 -5 52 -5 111 -11 130 -12 19 -2 69 -9 110 -15 421 -64 538 -109 696 -266 49 -49 115 -127 145 -172 30 -45 57 -82 60 -83 3 0 2 21 -2 47 -4 27 -8 73 -9 103 -1 122 1 119 -129 195 -64 38 -159 95 -211 126 -155 92 -314 133 -667 169 -109 11 -208 23 -220 25 -18 4 -23 1 -23 -15z"/>
<path d="M7824 635 c-5 -15 -6 -37 -5 -67 1 -26 4 -28 41 -28 36 0 40 3 40 25 0 14 6 25 13 25 8 0 9 2 1 8 -7 4 -13 16 -15 26 -3 14 -13 19 -38 20 -18 1 -35 -3 -37 -9z"/>
<path d="M10700 623 c0 -13 -4 -23 -10 -23 -5 0 -10 -13 -10 -30 0 -30 1 -30 55 -30 54 0 55 1 54 28 -2 60 -12 75 -52 76 -32 1 -37 -2 -37 -21z"/>
<path d="M7970 580 l0 -40 1331 0 1332 0 -7 31 c-3 17 -6 35 -6 40 0 5 -575 9 -1325 9 l-1325 0 0 -40z"/>
<path d="M10847 613 c-4 -3 -7 -21 -7 -40 l0 -33 474 0 c260 0 488 3 505 6 27 6 31 10 31 40 l0 34 -498 0 c-274 0 -502 -3 -505 -7z"/>
<path d="M4138 568 c-3 -7 10 -34 28 -60 44 -64 68 -141 68 -213 0 -73 -22 -118 -69 -147 -29 -17 -33 -23 -25 -39 20 -36 55 -23 114 43 58 64 96 129 96 166 0 13 -36 66 -84 125 -100 122 -122 144 -128 125z"/>
<path d="M5880 350 l0 -40 2985 0 2985 0 0 40 0 40 -2985 0 -2985 0 0 -40z"/>
</g>


</svg>